<?xml version="1.0" encoding="UTF-8"?>
<svg width="100px" height="48px" viewBox="0 0 100 48" version="1.1" xmlns="http://www.w3.org/2000/svg" xmlns:xlink="http://www.w3.org/1999/xlink">
    <!-- Generator: Sketch 52.6 (67491) - http://www.bohemiancoding.com/sketch -->
    <title>Logo/小区乐-黄色</title>
    <desc>Created with Sketch.</desc>
    <g id="Logo/小区乐-黄色" stroke="none" stroke-width="1" fill="none" fill-rule="evenodd">
        <g id="小区乐logo" transform="translate(1.000000, 1.000000)" fill="#FFE624">
            <path d="M13.9386498,32.6715213 C13.9386498,35.5049715 12.2795189,37.1962948 9.5,37.1962948 L9.5,43.8849558 C15.870759,43.8849558 20.495444,39.1736336 20.4996203,32.6808101 L20.5,4.53982301 L13.9386498,4.53982301 L13.9386498,32.6715213 Z" id="Fill-1"></path>
            <path d="M10.9896828,19.4872134 L4.43444138,19.4872134 L4.43444138,26.2069291 C4.43444138,29.0535347 2.77647586,30.7527106 -7.58620681e-05,30.7527106 L-7.58620681e-05,37.4724263 C6.36778621,37.4724263 10.9896828,32.734564 10.9896828,26.2069291 L10.9896828,19.4872134 Z" id="Fill-3"></path>
            <polygon id="Fill-5" points="24 29.7610619 30.5 29.7610619 30.5 23.2035398 24 23.2035398"></polygon>
            <path d="M72.4834087,32.1152372 C72.4834087,35.2609557 70.5739065,37.215693 67.5,37.215693 L67.5,43.8849558 C74.1636501,43.8849558 79,38.9353987 79,32.1152372 L79,29.7610619 L72.4834087,29.7610619 L72.4834087,32.1152372 Z" id="Fill-7"></path>
            <polygon id="Fill-8" points="92 43.8849558 98.5 43.8849558 98.5 29.7610619 92 29.7610619"></polygon>
            <path d="M88.7777512,19.8759757 L88.7777512,15.1529294 L82.1666985,15.1529294 L82.1666985,19.8759757 L81.4299269,19.8759757 L81.4299269,19.8752014 C80.1851424,19.8957212 79.1350707,19.5197824 78.3914133,18.7810684 C77.5658925,17.9606622 77.1110527,16.6833993 77.1110527,15.1842899 L77.1110527,11.2173802 L84.3777785,11.2173802 L84.3777785,11.2154443 C90.7619851,11.1802122 95.3888039,6.47536268 95.3888039,0 L88.7777512,0 C88.7777512,2.87664842 87.1477492,4.52636563 84.3054785,4.52636563 L77.1110527,4.52636563 L70.5,4.52636563 L70.5,11.2173802 L70.5,15.5346758 L70.5076508,15.5346758 C70.5868365,18.7032479 71.7325432,21.5411796 73.7600041,23.5556078 C75.638657,25.4221384 78.1798688,26.4752318 80.9662887,26.5588598 L80.9662887,26.5669903 L82.1666985,26.5669903 L82.1666985,43.8849558 L88.7777512,43.8849558 L88.7777512,26.5669903 L98.5,26.5669903 L98.5,19.8759757 L88.7777512,19.8759757 Z" id="Fill-9"></path>
            <polygon id="Fill-10" points="58 13.1150442 53 18.159292 58 23.2035398 63 18.159292"></polygon>
            <polygon id="Fill-11" points="46.5 34.8053097 51.5 29.7614518 46.5 24.7168142 41.5 29.7614518"></polygon>
            <polygon id="Fill-12" points="63 30.127966 46.635935 13.619469 42 18.2968127 58.3636856 34.8053097"></polygon>
            <path d="M33.5,4.63464641 L33.5,11.2285498 L33.5,32.8660893 L33.5041929,32.8660893 C33.5960567,39.216548 38.1435009,43.8156766 44.4077674,43.8818595 L44.4077674,43.8849558 L64.5,43.8849558 L64.5,37.196616 L44.5438477,37.196616 C41.7951787,37.196616 40.0875048,35.4623153 40.0875048,32.671411 L40.0875048,11.2285498 L64.5,11.2285498 L64.5,4.53982301 L33.5,4.53982301 L33.5,4.63464641 Z" id="Fill-13"></path>
        </g>
    </g>
</svg>